<mxfile host="app.diagrams.net" modified="2024-04-17T14:03:30.123Z" agent="Mozilla/5.0 (Macintosh; Intel Mac OS X 10.15; rv:126.0) Gecko/20100101 Firefox/126.0" etag="5_TDXgd2JUzmgDr8gI2S" version="22.1.21" type="device">
  <diagram name="Page-1" id="UW3OLV6GaEz2t2Hav6oM">
    <mxGraphModel dx="1178" dy="832" grid="1" gridSize="10" guides="1" tooltips="1" connect="1" arrows="1" fold="1" page="1" pageScale="1" pageWidth="3300" pageHeight="4681" math="0" shadow="0">
      <root>
        <mxCell id="0" />
        <mxCell id="1" parent="0" />
        <mxCell id="tWXApw5cy0hb7qnAGB8U-29" value="" style="rounded=0;whiteSpace=wrap;html=1;" vertex="1" parent="1">
          <mxGeometry x="200" y="160" width="880" height="800" as="geometry" />
        </mxCell>
        <mxCell id="tWXApw5cy0hb7qnAGB8U-1" value="" style="whiteSpace=wrap;html=1;aspect=fixed;" vertex="1" parent="1">
          <mxGeometry x="400" y="320" width="480" height="480" as="geometry" />
        </mxCell>
        <mxCell id="tWXApw5cy0hb7qnAGB8U-2" value="" style="endArrow=none;html=1;rounded=0;fillColor=#f5f5f5;strokeColor=#666666;" edge="1" parent="1">
          <mxGeometry width="50" height="50" relative="1" as="geometry">
            <mxPoint x="560" y="920" as="sourcePoint" />
            <mxPoint x="560" y="200" as="targetPoint" />
          </mxGeometry>
        </mxCell>
        <mxCell id="tWXApw5cy0hb7qnAGB8U-3" value="" style="endArrow=none;html=1;rounded=0;" edge="1" parent="1">
          <mxGeometry width="50" height="50" relative="1" as="geometry">
            <mxPoint x="720" y="920" as="sourcePoint" />
            <mxPoint x="720" y="200" as="targetPoint" />
          </mxGeometry>
        </mxCell>
        <mxCell id="tWXApw5cy0hb7qnAGB8U-4" value="" style="endArrow=none;html=1;rounded=0;" edge="1" parent="1">
          <mxGeometry width="50" height="50" relative="1" as="geometry">
            <mxPoint x="280" y="480" as="sourcePoint" />
            <mxPoint x="1000" y="480" as="targetPoint" />
          </mxGeometry>
        </mxCell>
        <mxCell id="tWXApw5cy0hb7qnAGB8U-5" value="" style="endArrow=none;html=1;rounded=0;" edge="1" parent="1">
          <mxGeometry width="50" height="50" relative="1" as="geometry">
            <mxPoint x="280" y="640" as="sourcePoint" />
            <mxPoint x="1000" y="640" as="targetPoint" />
          </mxGeometry>
        </mxCell>
        <mxCell id="tWXApw5cy0hb7qnAGB8U-6" value="" style="rounded=1;whiteSpace=wrap;html=1;fillColor=#dae8fc;strokeColor=#6c8ebf;" vertex="1" parent="1">
          <mxGeometry x="560" y="480" width="160" height="160" as="geometry" />
        </mxCell>
        <mxCell id="tWXApw5cy0hb7qnAGB8U-7" value="&lt;font style=&quot;font-size: 18px;&quot;&gt;Anchor&lt;/font&gt;" style="text;html=1;strokeColor=none;fillColor=none;align=center;verticalAlign=middle;whiteSpace=wrap;rounded=0;" vertex="1" parent="1">
          <mxGeometry x="610" y="545" width="60" height="30" as="geometry" />
        </mxCell>
        <mxCell id="tWXApw5cy0hb7qnAGB8U-8" value="&lt;font style=&quot;font-size: 18px;&quot;&gt;Start&lt;/font&gt;" style="text;html=1;strokeColor=none;fillColor=none;align=center;verticalAlign=middle;whiteSpace=wrap;rounded=0;" vertex="1" parent="1">
          <mxGeometry x="930" y="385" width="60" height="30" as="geometry" />
        </mxCell>
        <mxCell id="tWXApw5cy0hb7qnAGB8U-9" value="Center" style="text;html=1;strokeColor=none;fillColor=none;align=center;verticalAlign=middle;whiteSpace=wrap;rounded=0;fontSize=18;" vertex="1" parent="1">
          <mxGeometry x="930" y="545" width="60" height="30" as="geometry" />
        </mxCell>
        <mxCell id="tWXApw5cy0hb7qnAGB8U-10" value="End" style="text;html=1;strokeColor=none;fillColor=none;align=center;verticalAlign=middle;whiteSpace=wrap;rounded=0;fontSize=18;" vertex="1" parent="1">
          <mxGeometry x="930" y="705" width="60" height="30" as="geometry" />
        </mxCell>
        <mxCell id="tWXApw5cy0hb7qnAGB8U-11" value="&lt;font style=&quot;font-size: 18px;&quot;&gt;Start&lt;/font&gt;" style="text;html=1;strokeColor=none;fillColor=none;align=center;verticalAlign=middle;whiteSpace=wrap;rounded=0;" vertex="1" parent="1">
          <mxGeometry x="450" y="850" width="60" height="20" as="geometry" />
        </mxCell>
        <mxCell id="tWXApw5cy0hb7qnAGB8U-12" value="&lt;font style=&quot;font-size: 18px;&quot;&gt;Center&lt;/font&gt;" style="text;html=1;strokeColor=none;fillColor=none;align=center;verticalAlign=middle;whiteSpace=wrap;rounded=0;" vertex="1" parent="1">
          <mxGeometry x="610" y="850" width="60" height="20" as="geometry" />
        </mxCell>
        <mxCell id="tWXApw5cy0hb7qnAGB8U-13" value="&lt;font style=&quot;font-size: 18px;&quot;&gt;End&lt;/font&gt;" style="text;html=1;strokeColor=none;fillColor=none;align=center;verticalAlign=middle;whiteSpace=wrap;rounded=0;" vertex="1" parent="1">
          <mxGeometry x="770" y="850" width="60" height="20" as="geometry" />
        </mxCell>
        <mxCell id="tWXApw5cy0hb7qnAGB8U-14" value="&lt;font style=&quot;font-size: 18px;&quot;&gt;Top&lt;/font&gt;" style="text;html=1;strokeColor=none;fillColor=none;align=center;verticalAlign=middle;whiteSpace=wrap;rounded=0;" vertex="1" parent="1">
          <mxGeometry x="290" y="385" width="60" height="30" as="geometry" />
        </mxCell>
        <mxCell id="tWXApw5cy0hb7qnAGB8U-15" value="Center" style="text;html=1;strokeColor=none;fillColor=none;align=center;verticalAlign=middle;whiteSpace=wrap;rounded=0;fontSize=18;" vertex="1" parent="1">
          <mxGeometry x="290" y="545" width="60" height="30" as="geometry" />
        </mxCell>
        <mxCell id="tWXApw5cy0hb7qnAGB8U-16" value="Bottom" style="text;html=1;strokeColor=none;fillColor=none;align=center;verticalAlign=middle;whiteSpace=wrap;rounded=0;fontSize=18;" vertex="1" parent="1">
          <mxGeometry x="290" y="705" width="60" height="30" as="geometry" />
        </mxCell>
        <mxCell id="tWXApw5cy0hb7qnAGB8U-17" value="&lt;font style=&quot;font-size: 18px;&quot;&gt;Left&lt;/font&gt;" style="text;html=1;strokeColor=none;fillColor=none;align=center;verticalAlign=middle;whiteSpace=wrap;rounded=0;" vertex="1" parent="1">
          <mxGeometry x="450" y="250" width="60" height="20" as="geometry" />
        </mxCell>
        <mxCell id="tWXApw5cy0hb7qnAGB8U-18" value="&lt;font style=&quot;font-size: 18px;&quot;&gt;Center&lt;/font&gt;" style="text;html=1;strokeColor=none;fillColor=none;align=center;verticalAlign=middle;whiteSpace=wrap;rounded=0;" vertex="1" parent="1">
          <mxGeometry x="610" y="250" width="60" height="20" as="geometry" />
        </mxCell>
        <mxCell id="tWXApw5cy0hb7qnAGB8U-19" value="&lt;font style=&quot;font-size: 18px;&quot;&gt;Right&lt;/font&gt;" style="text;html=1;strokeColor=none;fillColor=none;align=center;verticalAlign=middle;whiteSpace=wrap;rounded=0;" vertex="1" parent="1">
          <mxGeometry x="770" y="250" width="60" height="20" as="geometry" />
        </mxCell>
        <mxCell id="tWXApw5cy0hb7qnAGB8U-20" value="" style="rounded=1;whiteSpace=wrap;html=1;fillColor=#f5f5f5;strokeColor=#666666;fontColor=#333333;" vertex="1" parent="1">
          <mxGeometry x="240" y="200" width="160" height="120" as="geometry" />
        </mxCell>
        <mxCell id="tWXApw5cy0hb7qnAGB8U-21" value="&lt;font style=&quot;font-size: 18px;&quot;&gt;Physical values&lt;br&gt;&lt;/font&gt;" style="text;html=1;strokeColor=none;fillColor=none;align=center;verticalAlign=middle;whiteSpace=wrap;rounded=0;" vertex="1" parent="1">
          <mxGeometry x="290" y="245" width="60" height="30" as="geometry" />
        </mxCell>
        <mxCell id="tWXApw5cy0hb7qnAGB8U-22" value="" style="endArrow=classic;html=1;rounded=0;exitX=0.5;exitY=1;exitDx=0;exitDy=0;strokeWidth=2;" edge="1" parent="1" source="tWXApw5cy0hb7qnAGB8U-20">
          <mxGeometry width="50" height="50" relative="1" as="geometry">
            <mxPoint x="570" y="350" as="sourcePoint" />
            <mxPoint x="320" y="360" as="targetPoint" />
          </mxGeometry>
        </mxCell>
        <mxCell id="tWXApw5cy0hb7qnAGB8U-23" value="" style="endArrow=classic;html=1;rounded=0;exitX=1;exitY=0.5;exitDx=0;exitDy=0;strokeWidth=2;" edge="1" parent="1" source="tWXApw5cy0hb7qnAGB8U-20">
          <mxGeometry width="50" height="50" relative="1" as="geometry">
            <mxPoint x="330" y="330" as="sourcePoint" />
            <mxPoint x="440" y="260" as="targetPoint" />
          </mxGeometry>
        </mxCell>
        <mxCell id="tWXApw5cy0hb7qnAGB8U-24" value="" style="rounded=1;whiteSpace=wrap;html=1;fillColor=#f5f5f5;strokeColor=#666666;fontColor=#333333;" vertex="1" parent="1">
          <mxGeometry x="880" y="800" width="160" height="120" as="geometry" />
        </mxCell>
        <mxCell id="tWXApw5cy0hb7qnAGB8U-25" value="&lt;font style=&quot;font-size: 18px;&quot;&gt;Logical values&lt;br&gt;&lt;/font&gt;" style="text;html=1;strokeColor=none;fillColor=none;align=center;verticalAlign=middle;whiteSpace=wrap;rounded=0;" vertex="1" parent="1">
          <mxGeometry x="930" y="845" width="60" height="30" as="geometry" />
        </mxCell>
        <mxCell id="tWXApw5cy0hb7qnAGB8U-26" value="" style="endArrow=classic;html=1;rounded=0;exitX=0;exitY=0.5;exitDx=0;exitDy=0;strokeWidth=2;" edge="1" parent="1" source="tWXApw5cy0hb7qnAGB8U-24">
          <mxGeometry width="50" height="50" relative="1" as="geometry">
            <mxPoint x="570" y="830" as="sourcePoint" />
            <mxPoint x="840" y="860" as="targetPoint" />
          </mxGeometry>
        </mxCell>
        <mxCell id="tWXApw5cy0hb7qnAGB8U-27" value="" style="endArrow=classic;html=1;rounded=0;exitX=0.5;exitY=0;exitDx=0;exitDy=0;strokeWidth=2;" edge="1" parent="1" source="tWXApw5cy0hb7qnAGB8U-24">
          <mxGeometry width="50" height="50" relative="1" as="geometry">
            <mxPoint x="890" y="870" as="sourcePoint" />
            <mxPoint x="960" y="760" as="targetPoint" />
          </mxGeometry>
        </mxCell>
      </root>
       <mxCell id="yv88gdYzeh7OAjEL50dU-1" value="&lt;font style=&quot;font-size: 18px;&quot;&gt;y-start&lt;/font&gt;" style="text;html=1;strokeColor=none;fillColor=none;align=center;verticalAlign=middle;whiteSpace=wrap;rounded=0;" vertex="1" parent="1">
          <mxGeometry x="530" y="180" width="60" height="20" as="geometry" />
        </mxCell>
        <mxCell id="yv88gdYzeh7OAjEL50dU-3" value="" style="endArrow=none;html=1;rounded=0;fillColor=#f5f5f5;strokeColor=#666666;" edge="1" parent="1" target="yv88gdYzeh7OAjEL50dU-2">
          <mxGeometry width="50" height="50" relative="1" as="geometry">
            <mxPoint x="560" y="920" as="sourcePoint" />
            <mxPoint x="560" y="200" as="targetPoint" />
          </mxGeometry>
        </mxCell>
        <mxCell id="yv88gdYzeh7OAjEL50dU-2" value="&lt;font style=&quot;font-size: 18px;&quot;&gt;y-end&lt;/font&gt;" style="text;html=1;strokeColor=none;fillColor=none;align=center;verticalAlign=middle;whiteSpace=wrap;rounded=0;" vertex="1" parent="1">
          <mxGeometry x="520" y="920" width="60" height="20" as="geometry" />
        </mxCell>
        <mxCell id="yv88gdYzeh7OAjEL50dU-4" value="&lt;font style=&quot;font-size: 18px;&quot;&gt;x-start&lt;/font&gt;" style="text;html=1;strokeColor=none;fillColor=none;align=center;verticalAlign=middle;whiteSpace=wrap;rounded=0;" vertex="1" parent="1">
          <mxGeometry x="220" y="480" width="60" height="20" as="geometry" />
        </mxCell>
        <mxCell id="yv88gdYzeh7OAjEL50dU-5" value="&lt;font style=&quot;font-size: 18px;&quot;&gt;x-end&lt;/font&gt;" style="text;html=1;strokeColor=none;fillColor=none;align=center;verticalAlign=middle;whiteSpace=wrap;rounded=0;" vertex="1" parent="1">
          <mxGeometry x="990" y="480" width="60" height="20" as="geometry" />
        </mxCell>
    </mxGraphModel>
  </diagram>
</mxfile>
